 <svg viewBox="0 0 1024 1024" version="1.1" xmlns="http://www.w3.org/2000/svg">
<path d="M 960.3 451.6 c -1.2 201.9 -135.9 372.2 -320.2 427.2 v 81.5 h -256 V 879 C 199.5 824.1 64.6 653.7 63.3 451.6 h 897 Z"  fill="var(--sl-color-text-accent)"></path>
<path d="M 645.1 965.2 h -266 v -82.6 c -44.8 -13.7 -87.1 -34.2 -125.7 -61.1 c -39.1 -27.2 -73.6 -60.1 -102.4 -98 c -29.2 -38.3 -52 -80.7 -67.7 -126 c -16.3 -46.8 -24.6 -95.9 -24.9 -146 v -5 h 907 v 5 c -0.3 50 -8.7 99 -24.9 145.8 c -15.7 45.3 -38.4 87.6 -67.6 125.9 c -28.8 37.9 -63.2 70.8 -102.3 98 c -38.6 26.8 -80.8 47.4 -125.5 61.1 v 82.9 Z m -256 -10 h 246 V 875 l 3.6 -1.1 C 825.3 818.3 952 651 955.3 456.6 H 68.4 c 3.4 191.7 133.1 363 317.1 417.5 l 3.6 1.1 v 80 Z" fill="" p-id="19950"></path><path d="M 812.1 188.3 c -38.9 -38.9 -84.3 -69.4 -134.8 -90.7 C 625 75.5 569.4 64.3 512.2 64.3 c -57.3 0 -112.8 11.2 -165.1 33.3 c -50.5 21.3 -95.9 51.8 -134.8 90.7 c -38.9 38.9 -69.5 84.1 -90.9 134.6 c -12.9 30.3 -22 61.7 -27.4 94 h 11.1 C 138.8 223 308.5 75.2 512.2 75.2 c 203.7 0 373.4 147.8 407.1 341.6 h 11.1 c -5.4 -32.2 -14.6 -63.6 -27.4 -94 c -21.4 -50.4 -52 -95.7 -90.9 -134.5 Z" fill="" p-id="19951"></path><path d="M 608.6 224.1 m -11.3 0 a 11.3 11.3 0 1 0 22.6 0 a 11.3 11.3 0 1 0 -22.6 0 Z" fill="" p-id="19952"></path><path d="M 415.8 224.1 m -11.3 0 a 11.3 11.3 0 1 0 22.6 0 a 11.3 11.3 0 1 0 -22.6 0 Z" fill="" p-id="19953"></path><path d="M 287.2 350.1 m -11.3 0 a 11.3 11.3 0 1 0 22.6 0 a 11.3 11.3 0 1 0 -22.6 0 Z" fill="" p-id="19954"></path><path d="M 512.1 350.1 m -11.3 0 a 11.3 11.3 0 1 0 22.6 0 a 11.3 11.3 0 1 0 -22.6 0 Z"></path>
<path d="M 734.8 350.1 m -11.3 0 a 11.3 11.3 0 1 0 22.6 0 a 11.3 11.3 0 1 0 -22.6 0 Z">
    <style>
        path { fill: #000; }
        @media (prefers-color-scheme: dark) {
            path { fill: #99daaf; }
        }
    </style>
</path>
</svg>